<?xml version="1.0" encoding="utf-8"?>
<!-- Generator: Adobe Illustrator 18.1.1, SVG Export Plug-In . SVG Version: 6.00 Build 0)  -->
<svg version="1.1" id="Layer_1" xmlns="http://www.w3.org/2000/svg" xmlns:xlink="http://www.w3.org/1999/xlink" x="0px" y="0px"
	 viewBox="0 0 188.7 62.3" style="enable-background:new 0 0 188.7 62.3;" xml:space="preserve" preserveAspectRatio="none">
<style type="text/css">
	.st0{fill:#0084A9;}
	.st1{fill:#F26531;}
	.st2{fill:#FFD457;}
</style>
<g>
	<g>
		<path class="st0" d="M91.1,45c0-1.6,0-1.9,0-2.2c0-0.4-0.1-0.5-0.4-0.6c-0.1,0-0.2,0-0.4,0c-0.1,0-0.2,0-0.2-0.1
			c0-0.1,0.1-0.1,0.2-0.1c0.4,0,1,0,1.3,0c0.3,0,0.9,0,1.3,0c0.1,0,0.2,0,0.2,0.1c0,0.1-0.1,0.1-0.2,0.1c-0.1,0-0.2,0-0.3,0
			c-0.3,0.1-0.4,0.2-0.4,0.6c0,0.3,0,0.6,0,2.2v1.8c0,1,0,1.8,0,2.3c0,0.3,0.1,0.5,0.4,0.5c0.1,0,0.4,0,0.5,0c0.1,0,0.2,0,0.2,0.1
			c0,0.1-0.1,0.1-0.2,0.1c-0.7,0-1.3,0-1.6,0c-0.2,0-0.9,0-1.3,0c-0.1,0-0.2,0-0.2-0.1c0-0.1,0-0.1,0.2-0.1c0.2,0,0.3,0,0.4,0
			c0.2,0,0.3-0.2,0.3-0.5c0.1-0.4,0.1-1.3,0.1-2.3V45z"/>
		<path class="st0" d="M96.6,48.4c0,0.8,0.2,1.1,0.4,1.2c0.2,0.1,0.4,0.1,0.5,0.1c0.1,0,0.2,0,0.2,0.1c0,0.1-0.1,0.1-0.2,0.1
			c-0.7,0-1.1,0-1.3,0c-0.1,0-0.6,0-1.1,0c-0.1,0-0.2,0-0.2-0.1c0-0.1,0.1-0.1,0.2-0.1c0.1,0,0.3,0,0.5-0.1c0.3-0.1,0.3-0.4,0.3-1.3
			l0.1-6.1c0-0.2,0-0.4,0.1-0.4c0.1,0,0.2,0.1,0.4,0.3c0.1,0.1,1.7,1.8,3.2,3.3c0.7,0.7,2.1,2.2,2.3,2.4h0.1l-0.1-4.7
			c0-0.6-0.1-0.8-0.4-0.9c-0.2-0.1-0.4-0.1-0.5-0.1c-0.1,0-0.2,0-0.2-0.1c0-0.1,0.1-0.1,0.3-0.1c0.5,0,1,0,1.3,0c0.1,0,0.5,0,1,0
			c0.1,0,0.2,0,0.2,0.1c0,0.1-0.1,0.1-0.2,0.1c-0.1,0-0.2,0-0.3,0c-0.3,0.1-0.4,0.3-0.4,0.9l-0.1,6.5c0,0.2,0,0.3-0.1,0.3
			c-0.1,0-0.2-0.1-0.4-0.2c-0.7-0.6-2-2-3.1-3c-1.1-1.1-2.3-2.4-2.5-2.6h0L96.6,48.4z"/>
		<path class="st0" d="M105.5,49.7c-0.2-0.1-0.2-0.1-0.2-0.4c0-0.6,0-1.2,0.1-1.4c0-0.2,0-0.3,0.1-0.3c0.1,0,0.1,0.1,0.1,0.2
			c0,0.1,0,0.4,0.1,0.5c0.2,0.8,0.8,1,1.5,1c0.9,0,1.4-0.6,1.4-1.2c0-0.5-0.2-1-1-1.7l-0.5-0.4c-1.1-0.9-1.5-1.6-1.5-2.5
			c0-1.1,1-2,2.4-2c0.7,0,1.1,0.1,1.4,0.2c0.1,0,0.1,0.1,0.1,0.1c0,0.1,0,0.4,0,1.2c0,0.2,0,0.3-0.1,0.3c-0.1,0-0.1-0.1-0.1-0.2
			c0-0.1-0.1-0.4-0.3-0.7c-0.2-0.2-0.5-0.5-1.1-0.5c-0.8,0-1.2,0.4-1.2,1.1c0,0.5,0.2,0.8,1.1,1.5l0.3,0.2c1.3,0.9,1.7,1.7,1.7,2.6
			c0,0.6-0.2,1.3-1,1.8c-0.5,0.3-1.1,0.4-1.6,0.4C106.4,50,105.9,49.9,105.5,49.7z"/>
		<path class="st0" d="M113.7,42.6l-1.5,0c-0.6,0-0.9,0.1-1,0.3c-0.1,0.2-0.2,0.3-0.2,0.4c0,0.1-0.1,0.1-0.1,0.1
			c-0.1,0-0.1-0.1-0.1-0.2c0-0.2,0.2-1.1,0.2-1.2c0-0.1,0.1-0.2,0.1-0.2c0.1,0,0.2,0.1,0.4,0.1c0.3,0,0.7,0.1,1,0.1h4.1
			c0.3,0,0.6,0,0.7-0.1c0.2,0,0.2-0.1,0.3-0.1c0.1,0,0.1,0.1,0.1,0.2c0,0.2,0,0.9,0,1.2c0,0.1,0,0.2-0.1,0.2c-0.1,0-0.1-0.1-0.1-0.2
			l0-0.1c0-0.3-0.3-0.6-1.2-0.6l-1.3,0v4.2c0,1,0,1.8,0.1,2.2c0,0.3,0.1,0.5,0.4,0.6c0.1,0,0.4,0,0.5,0c0.1,0,0.2,0,0.2,0.1
			c0,0.1-0.1,0.1-0.2,0.1c-0.7,0-1.3,0-1.6,0c-0.2,0-0.9,0-1.3,0c-0.1,0-0.2,0-0.2-0.1c0-0.1,0-0.1,0.2-0.1c0.2,0,0.3,0,0.4,0
			c0.2,0,0.3-0.3,0.3-0.6c0.1-0.4,0.1-1.3,0.1-2.2V42.6z"/>
		<path class="st0" d="M119.8,45c0-1.6,0-1.9,0-2.2c0-0.4-0.1-0.5-0.4-0.6c-0.1,0-0.2,0-0.4,0c-0.1,0-0.2,0-0.2-0.1
			c0-0.1,0.1-0.1,0.2-0.1c0.4,0,1,0,1.3,0c0.3,0,0.9,0,1.3,0c0.1,0,0.2,0,0.2,0.1c0,0.1-0.1,0.1-0.2,0.1c-0.1,0-0.2,0-0.3,0
			c-0.3,0.1-0.4,0.2-0.4,0.6c0,0.3,0,0.6,0,2.2v1.8c0,1,0,1.8,0,2.3c0,0.3,0.1,0.5,0.4,0.5c0.1,0,0.4,0,0.5,0c0.1,0,0.2,0,0.2,0.1
			c0,0.1-0.1,0.1-0.2,0.1c-0.7,0-1.3,0-1.6,0c-0.2,0-0.9,0-1.3,0c-0.1,0-0.2,0-0.2-0.1c0-0.1,0-0.1,0.2-0.1c0.2,0,0.3,0,0.4,0
			c0.2,0,0.3-0.2,0.3-0.5c0.1-0.4,0.1-1.3,0.1-2.3V45z"/>
		<path class="st0" d="M126.1,42.6l-1.5,0c-0.6,0-0.9,0.1-1,0.3c-0.1,0.2-0.2,0.3-0.2,0.4c0,0.1-0.1,0.1-0.1,0.1
			c-0.1,0-0.1-0.1-0.1-0.2c0-0.2,0.2-1.1,0.2-1.2c0-0.1,0.1-0.2,0.1-0.2c0.1,0,0.2,0.1,0.4,0.1c0.3,0,0.7,0.1,1,0.1h4.1
			c0.3,0,0.6,0,0.7-0.1c0.2,0,0.2-0.1,0.3-0.1c0.1,0,0.1,0.1,0.1,0.2c0,0.2,0,0.9,0,1.2c0,0.1,0,0.2-0.1,0.2c-0.1,0-0.1-0.1-0.1-0.2
			l0-0.1c0-0.3-0.3-0.6-1.2-0.6l-1.3,0v4.2c0,1,0,1.8,0.1,2.2c0,0.3,0.1,0.5,0.4,0.6c0.1,0,0.4,0,0.5,0c0.1,0,0.2,0,0.2,0.1
			c0,0.1-0.1,0.1-0.2,0.1c-0.7,0-1.3,0-1.6,0c-0.2,0-0.9,0-1.3,0c-0.1,0-0.2,0-0.2-0.1c0-0.1,0-0.1,0.2-0.1c0.2,0,0.3,0,0.4,0
			c0.2,0,0.3-0.3,0.3-0.6c0.1-0.4,0.1-1.3,0.1-2.2V42.6z"/>
		<path class="st0" d="M131.9,45c0-1.6,0-1.9,0-2.2c0-0.4-0.1-0.5-0.4-0.6c-0.1,0-0.3,0-0.4,0c-0.1,0-0.2,0-0.2-0.1
			c0-0.1,0.1-0.1,0.2-0.1c0.5,0,1.2,0,1.5,0c0.2,0,0.9,0,1.3,0c0.2,0,0.2,0,0.2,0.1c0,0.1-0.1,0.1-0.2,0.1c-0.1,0-0.2,0-0.3,0
			c-0.3,0.1-0.4,0.2-0.4,0.6c0,0.3,0,0.6,0,2.2v1.5c0,1.5,0.3,2.1,0.8,2.5c0.5,0.4,0.9,0.4,1.3,0.4c0.5,0,1-0.1,1.4-0.6
			c0.6-0.6,0.6-1.5,0.6-2.6V45c0-1.6,0-1.9,0-2.2c0-0.4-0.1-0.5-0.4-0.6c-0.1,0-0.3,0-0.4,0c-0.1,0-0.2,0-0.2-0.1
			c0-0.1,0.1-0.1,0.2-0.1c0.5,0,1.2,0,1.2,0c0.1,0,0.8,0,1.2,0c0.1,0,0.2,0,0.2,0.1c0,0.1-0.1,0.1-0.2,0.1c-0.1,0-0.2,0-0.3,0
			c-0.3,0.1-0.4,0.2-0.4,0.6c0,0.3,0,0.6,0,2.2v1.1c0,1.2-0.1,2.4-1,3.1c-0.7,0.6-1.5,0.7-2.2,0.7c-0.5,0-1.5,0-2.3-0.7
			c-0.5-0.5-0.9-1.2-0.9-2.7V45z"/>
		<path class="st0" d="M142.7,42.6l-1.5,0c-0.6,0-0.8,0.1-1,0.3c-0.1,0.2-0.2,0.3-0.2,0.4c0,0.1-0.1,0.1-0.1,0.1
			c-0.1,0-0.1-0.1-0.1-0.2c0-0.2,0.2-1.1,0.2-1.2c0-0.1,0.1-0.2,0.1-0.2c0.1,0,0.2,0.1,0.4,0.1c0.3,0,0.7,0.1,1,0.1h4.1
			c0.3,0,0.6,0,0.7-0.1c0.2,0,0.2-0.1,0.3-0.1c0.1,0,0.1,0.1,0.1,0.2c0,0.2,0,0.9,0,1.2c0,0.1,0,0.2-0.1,0.2c-0.1,0-0.1-0.1-0.1-0.2
			l0-0.1c0-0.3-0.3-0.6-1.2-0.6l-1.3,0v4.2c0,1,0,1.8,0.1,2.2c0,0.3,0.1,0.5,0.4,0.6c0.1,0,0.4,0,0.5,0c0.1,0,0.2,0,0.2,0.1
			c0,0.1-0.1,0.1-0.2,0.1c-0.7,0-1.3,0-1.6,0c-0.2,0-0.9,0-1.3,0c-0.1,0-0.2,0-0.2-0.1c0-0.1,0-0.1,0.2-0.1c0.2,0,0.3,0,0.4,0
			c0.2,0,0.3-0.3,0.3-0.6c0.1-0.4,0.1-1.3,0.1-2.2V42.6z"/>
		<path class="st0" d="M148.9,45c0-1.6,0-1.9,0-2.2c0-0.4-0.1-0.5-0.4-0.6c-0.1,0-0.3,0-0.4,0c-0.1,0-0.2,0-0.2-0.1
			c0-0.1,0.1-0.1,0.2-0.1c0.3,0,0.6,0,0.8,0c0.3,0,0.5,0,0.7,0c0.3,0,2.4,0,2.6,0c0.2,0,0.4,0,0.4-0.1c0.1,0,0.1,0,0.2,0
			c0.1,0,0.1,0,0.1,0.1c0,0.1-0.1,0.2-0.1,0.7c0,0.1,0,0.6-0.1,0.7c0,0.1,0,0.1-0.1,0.1c-0.1,0-0.1-0.1-0.1-0.1c0-0.1,0-0.2-0.1-0.4
			c-0.1-0.2-0.2-0.3-0.7-0.4c-0.2,0-1.3,0-1.5,0c-0.1,0-0.1,0-0.1,0.1v2.6c0,0.1,0,0.1,0.1,0.1c0.2,0,1.4,0,1.7,0
			c0.2,0,0.4-0.1,0.5-0.2c0.1-0.1,0.1-0.1,0.2-0.1c0,0,0.1,0,0.1,0.1c0,0.1,0,0.2-0.1,0.8c0,0.2,0,0.6,0,0.7c0,0.1,0,0.2-0.1,0.2
			c-0.1,0-0.1,0-0.1-0.1c0-0.1,0-0.2,0-0.4c-0.1-0.2-0.2-0.4-0.6-0.4c-0.2,0-1.2,0-1.5,0c-0.1,0-0.1,0-0.1,0.1v0.8
			c0,0.4,0,1.3,0,1.6c0,0.7,0.2,0.9,1.2,0.9c0.3,0,0.7,0,1-0.1c0.3-0.1,0.4-0.3,0.5-0.8c0-0.1,0-0.2,0.1-0.2c0.1,0,0.1,0.1,0.1,0.2
			c0,0.2-0.1,0.9-0.1,1.2c-0.1,0.3-0.2,0.3-0.6,0.3c-0.8,0-1.3,0-1.8,0c-0.4,0-0.8,0-1.1,0c-0.1,0-0.3,0-0.6,0c-0.2,0-0.5,0-0.7,0
			c-0.1,0-0.2,0-0.2-0.1c0-0.1,0-0.1,0.2-0.1c0.2,0,0.3,0,0.4,0c0.2,0,0.3-0.3,0.3-0.6c0.1-0.4,0.1-1.3,0.1-2.2V45z"/>
		<path class="st0" d="M155.1,49.7c-0.2-0.1-0.2-0.1-0.2-0.4c0-0.6,0-1.2,0.1-1.4c0-0.2,0-0.3,0.1-0.3c0.1,0,0.1,0.1,0.1,0.2
			c0,0.1,0,0.4,0.1,0.5c0.2,0.8,0.8,1,1.5,1c0.9,0,1.4-0.6,1.4-1.2c0-0.5-0.2-1-1-1.7l-0.5-0.4c-1.1-0.9-1.5-1.6-1.5-2.5
			c0-1.1,1-2,2.4-2c0.7,0,1.1,0.1,1.4,0.2c0.1,0,0.1,0.1,0.1,0.1c0,0.1,0,0.4,0,1.2c0,0.2,0,0.3-0.1,0.3c-0.1,0-0.1-0.1-0.1-0.2
			c0-0.1-0.1-0.4-0.3-0.7c-0.2-0.2-0.5-0.5-1.1-0.5c-0.8,0-1.2,0.4-1.2,1.1c0,0.5,0.2,0.8,1.1,1.5l0.3,0.2c1.3,0.9,1.7,1.7,1.7,2.6
			c0,0.6-0.2,1.3-1,1.8c-0.5,0.3-1.1,0.4-1.6,0.4C156,50,155.5,49.9,155.1,49.7z"/>
		<path class="st0" d="M166.5,46.8c0,1,0,1.8,0.1,2.2c0,0.3,0.1,0.5,0.4,0.6c0.1,0,0.4,0,0.5,0c0.1,0,0.2,0,0.2,0.1
			c0,0.1-0.1,0.1-0.2,0.1c-0.7,0-1.3,0-1.6,0c-0.3,0-0.9,0-1.3,0c-0.1,0-0.2,0-0.2-0.1c0-0.1,0-0.1,0.2-0.1c0.2,0,0.3,0,0.4,0
			c0.2,0,0.3-0.3,0.3-0.6c0.1-0.4,0.1-1.2,0.1-2.2V45c0-1.6,0-1.9,0-2.2c0-0.4-0.1-0.5-0.4-0.6c-0.1,0-0.3,0-0.4,0
			c-0.1,0-0.2,0-0.2-0.1c0-0.1,0.1-0.1,0.2-0.1c0.3,0,0.6,0,0.8,0c0.3,0,0.5,0,0.7,0c0.4,0,2.5,0,2.7,0c0.2,0,0.3,0,0.4,0
			c0.1,0,0.1-0.1,0.2-0.1c0,0,0.1,0,0.1,0.1c0,0.1-0.1,0.2-0.1,0.5c0,0.1,0,0.7-0.1,0.8c0,0.1,0,0.1-0.1,0.1c-0.1,0-0.1-0.1-0.1-0.2
			c0-0.1,0-0.2-0.1-0.4c-0.1-0.1-0.3-0.3-0.7-0.3l-1.6,0c-0.1,0-0.1,0-0.1,0.1v2.6c0,0.1,0,0.1,0.1,0.1l1.3,0c0.2,0,0.3,0,0.5,0
			c0.2,0,0.3-0.1,0.4-0.2c0.1-0.1,0.1-0.1,0.1-0.1c0,0,0.1,0,0.1,0.1s-0.1,0.3-0.1,0.6c0,0.2,0,0.7,0,0.8c0,0.1,0,0.2-0.1,0.2
			c-0.1,0-0.1-0.1-0.1-0.1c0-0.1,0-0.2-0.1-0.3c-0.1-0.1-0.2-0.3-0.5-0.4c-0.3,0-1.4,0-1.5,0c-0.1,0-0.1,0-0.1,0.1V46.8z"/>
		<path class="st0" d="M170.7,45.9c0-1.8,1.2-4.1,4.3-4.1c2.6,0,4.2,1.5,4.2,3.9c0,2.4-1.7,4.2-4.3,4.2
			C172,50,170.7,47.7,170.7,45.9z M177.8,46.1c0-2.3-1.3-3.8-3-3.8c-1.2,0-2.5,0.7-2.5,3.2c0,2.2,1.2,3.9,3.2,3.9
			C176.1,49.5,177.8,49.1,177.8,46.1z"/>
		<path class="st0" d="M181.6,45c0-1.6,0-1.9,0-2.2c0-0.4-0.1-0.5-0.4-0.6c-0.1,0-0.3,0-0.4,0c-0.1,0-0.2,0-0.2-0.1
			c0-0.1,0.1-0.1,0.2-0.1c0.5,0,1.2,0,1.4,0c0.4,0,1.1,0,1.5,0c0.7,0,1.3,0.1,1.9,0.4c0.3,0.2,0.7,0.7,0.7,1.4
			c0,0.8-0.3,1.5-1.4,2.3c0.9,1.2,1.6,2.1,2.2,2.7c0.6,0.6,1,0.7,1.2,0.7c0.1,0,0.2,0,0.3,0c0.1,0,0.1,0,0.1,0.1
			c0,0.1-0.1,0.1-0.2,0.1h-1c-0.6,0-0.8-0.1-1.1-0.2c-0.4-0.2-0.8-0.7-1.4-1.5c-0.4-0.6-0.9-1.3-1-1.4c-0.1-0.1-0.1-0.1-0.2-0.1
			l-0.9,0c-0.1,0-0.1,0-0.1,0.1v0.1c0,1,0,1.8,0.1,2.2c0,0.3,0.1,0.5,0.4,0.6c0.2,0,0.4,0,0.5,0c0.1,0,0.1,0,0.1,0.1
			c0,0.1-0.1,0.1-0.2,0.1c-0.6,0-1.4,0-1.5,0c-0.2,0-0.8,0-1.3,0c-0.1,0-0.2,0-0.2-0.1c0-0.1,0-0.1,0.2-0.1c0.2,0,0.3,0,0.4,0
			c0.2,0,0.3-0.3,0.3-0.6c0.1-0.4,0.1-1.3,0.1-2.2V45z M182.8,45.8c0,0.1,0,0.2,0.1,0.2c0.2,0.1,0.5,0.1,0.8,0.1
			c0.4,0,0.5,0,0.7-0.2c0.3-0.2,0.6-0.7,0.6-1.6c0-1.5-1-1.9-1.6-1.9c-0.3,0-0.4,0-0.5,0c-0.1,0-0.1,0.1-0.1,0.1V45.8z"/>
		<path class="st0" d="M46.8,57.4c0-1.6,0-1.9,0-2.2c0-0.4-0.1-0.5-0.4-0.6c-0.1,0-0.3,0-0.4,0c-0.1,0-0.2,0-0.2-0.1
			c0-0.1,0.1-0.1,0.2-0.1c0.5,0,1.2,0,1.4,0c0.5,0,0.9,0,1.3,0c1.9,0,2.2,1,2.2,1.6c0,0.8-0.5,1.4-1.1,1.8c0.8,0.3,1.9,1,1.9,2.2
			c0,1.1-0.9,2.3-2.8,2.3c-0.1,0-0.4,0-0.7,0c-0.3,0-0.6,0-0.8,0c-0.1,0-0.3,0-0.6,0c-0.2,0-0.5,0-0.7,0c-0.1,0-0.2,0-0.2-0.1
			c0-0.1,0-0.1,0.2-0.1c0.2,0,0.3,0,0.4,0c0.2,0,0.3-0.3,0.3-0.6c0.1-0.4,0.1-1.3,0.1-2.2V57.4z M48,57.5c0,0.1,0,0.1,0.1,0.1
			c0.1,0,0.2,0,0.5,0c0.3,0,0.6,0,0.7-0.2c0.3-0.2,0.4-0.6,0.4-1.1c0-0.7-0.4-1.6-1.3-1.6c-0.1,0-0.2,0-0.3,0C48,54.8,48,54.9,48,55
			V57.5z M49.4,58.4c-0.2-0.2-0.5-0.2-0.9-0.2c-0.2,0-0.3,0-0.4,0c0,0-0.1,0-0.1,0.1v2.5c0,0.7,0,0.9,0.4,1c0.3,0.1,0.5,0.1,0.8,0.1
			c0.5,0,1.3-0.2,1.3-1.3C50.4,59.8,50.2,58.9,49.4,58.4z"/>
		<path class="st0" d="M54.1,57.4c0-1.6,0-1.9,0-2.2c0-0.4-0.1-0.5-0.4-0.6c-0.1,0-0.2,0-0.4,0c-0.1,0-0.2,0-0.2-0.1
			c0-0.1,0.1-0.1,0.2-0.1c0.4,0,1,0,1.3,0c0.3,0,0.9,0,1.3,0c0.1,0,0.2,0,0.2,0.1c0,0.1-0.1,0.1-0.2,0.1c-0.1,0-0.2,0-0.3,0
			c-0.3,0.1-0.4,0.2-0.4,0.6c0,0.3,0,0.6,0,2.2v1.8c0,1,0,1.8,0,2.3c0,0.3,0.1,0.5,0.4,0.5c0.1,0,0.4,0,0.5,0c0.1,0,0.2,0,0.2,0.1
			c0,0.1-0.1,0.1-0.2,0.1c-0.7,0-1.3,0-1.6,0c-0.2,0-0.9,0-1.3,0c-0.1,0-0.2,0-0.2-0.1c0-0.1,0-0.1,0.2-0.1c0.2,0,0.3,0,0.4,0
			c0.2,0,0.3-0.2,0.3-0.5c0.1-0.4,0.1-1.3,0.1-2.3V57.4z"/>
		<path class="st0" d="M57.7,58.3c0-1.8,1.2-4.1,4.3-4.1c2.6,0,4.2,1.5,4.2,3.9c0,2.4-1.7,4.2-4.3,4.2C59,62.3,57.7,60.1,57.7,58.3z
			 M64.8,58.5c0-2.3-1.3-3.8-3-3.8c-1.2,0-2.5,0.7-2.5,3.2c0,2.2,1.2,3.9,3.2,3.9C63.1,61.8,64.8,61.5,64.8,58.5z"/>
		<path class="st0" d="M69,54.4c0-0.2,0.1-0.3,0.2-0.3s0.1,0.1,0.3,0.3l2.8,5.8l2.8-5.9c0.1-0.2,0.1-0.2,0.2-0.2s0.2,0.1,0.2,0.3
			l0.9,6.4c0.1,0.7,0.2,1,0.5,1c0.3,0.1,0.5,0.1,0.6,0.1c0.1,0,0.2,0,0.2,0.1c0,0.1-0.1,0.1-0.3,0.1c-0.3,0-1.7,0-2.1-0.1
			c-0.2,0-0.3-0.1-0.3-0.1c0-0.1,0-0.1,0.1-0.1c0.1,0,0.1-0.2,0.1-0.4l-0.6-4.6h0l-2.3,4.7c-0.2,0.5-0.3,0.6-0.4,0.6
			c-0.1,0-0.2-0.2-0.4-0.5c-0.2-0.5-1.1-2.1-1.2-2.4c-0.1-0.2-0.7-1.5-1.1-2.3h0l-0.5,4.1c0,0.2,0,0.3,0,0.5c0,0.2,0.1,0.3,0.3,0.3
			c0.2,0,0.3,0.1,0.4,0.1c0.1,0,0.2,0,0.2,0.1c0,0.1-0.1,0.1-0.2,0.1c-0.4,0-0.9,0-1.1,0c-0.2,0-0.7,0-1,0c-0.1,0-0.2,0-0.2-0.1
			c0-0.1,0.1-0.1,0.2-0.1c0.1,0,0.2,0,0.3,0c0.3-0.1,0.4-0.5,0.4-0.8L69,54.4z"/>
		<path class="st0" d="M79.7,57.4c0-1.6,0-1.9,0-2.2c0-0.4-0.1-0.5-0.4-0.6c-0.1,0-0.3,0-0.4,0c-0.1,0-0.2,0-0.2-0.1
			c0-0.1,0.1-0.1,0.2-0.1c0.3,0,0.6,0,0.8,0c0.3,0,0.5,0,0.7,0c0.3,0,2.4,0,2.6,0c0.2,0,0.4,0,0.4-0.1c0.1,0,0.1,0,0.2,0
			c0.1,0,0.1,0,0.1,0.1c0,0.1-0.1,0.2-0.1,0.7c0,0.1,0,0.6-0.1,0.7c0,0.1,0,0.1-0.1,0.1c-0.1,0-0.1-0.1-0.1-0.1c0-0.1,0-0.2-0.1-0.4
			c-0.1-0.2-0.2-0.3-0.7-0.4c-0.2,0-1.3,0-1.5,0c-0.1,0-0.1,0-0.1,0.1v2.6c0,0.1,0,0.1,0.1,0.1c0.2,0,1.4,0,1.7,0
			c0.2,0,0.4-0.1,0.5-0.2c0.1-0.1,0.1-0.1,0.2-0.1c0,0,0.1,0,0.1,0.1c0,0.1,0,0.2-0.1,0.8c0,0.2,0,0.6,0,0.7c0,0.1,0,0.2-0.1,0.2
			c-0.1,0-0.1,0-0.1-0.1c0-0.1,0-0.2,0-0.4c-0.1-0.2-0.2-0.4-0.6-0.4c-0.2,0-1.2,0-1.5,0c-0.1,0-0.1,0-0.1,0.1v0.8
			c0,0.4,0,1.3,0,1.6c0,0.7,0.2,0.9,1.2,0.9c0.3,0,0.7,0,1-0.1c0.3-0.1,0.4-0.3,0.5-0.8c0-0.1,0-0.2,0.1-0.2c0.1,0,0.1,0.1,0.1,0.2
			c0,0.2-0.1,0.9-0.1,1.2c-0.1,0.3-0.2,0.3-0.6,0.3c-0.8,0-1.3,0-1.8,0c-0.4,0-0.8,0-1.1,0c-0.1,0-0.3,0-0.6,0c-0.2,0-0.5,0-0.7,0
			c-0.1,0-0.2,0-0.2-0.1c0-0.1,0-0.1,0.2-0.1c0.2,0,0.3,0,0.4,0c0.2,0,0.3-0.3,0.3-0.6c0.1-0.4,0.1-1.3,0.1-2.2V57.4z"/>
		<path class="st0" d="M86.4,57.4c0-1.6,0-1.9,0-2.2c0-0.4-0.1-0.5-0.4-0.6c-0.1,0-0.3,0-0.4,0c-0.1,0-0.2,0-0.2-0.1
			c0-0.1,0.1-0.1,0.2-0.1c0.5,0,1.2,0,1.5,0c0.3,0,1,0,1.6,0c1.3,0,3,0,4.2,1.2c0.5,0.5,1,1.4,1,2.6c0,1.3-0.5,2.3-1.1,2.9
			c-0.5,0.5-1.6,1.2-3.5,1.2c-0.4,0-0.8,0-1.2-0.1c-0.4,0-0.8-0.1-1-0.1c-0.1,0-0.3,0-0.6,0c-0.2,0-0.5,0-0.7,0
			c-0.1,0-0.2,0-0.2-0.1c0-0.1,0-0.1,0.2-0.1c0.2,0,0.3,0,0.4,0c0.2,0,0.3-0.3,0.3-0.6c0.1-0.4,0.1-1.3,0.1-2.2V57.4z M87.7,58.5
			c0,1.1,0,1.9,0,2.1c0,0.3,0,0.7,0.1,0.8c0.1,0.2,0.5,0.4,1.4,0.4c1.1,0,1.8-0.2,2.4-0.7c0.7-0.6,0.9-1.5,0.9-2.6
			c0-1.3-0.5-2.2-1-2.6c-1-0.9-2.1-1-2.9-1c-0.2,0-0.6,0-0.7,0.1c-0.1,0-0.1,0.1-0.1,0.2c0,0.4,0,1.3,0,2.1V58.5z"/>
		<path class="st0" d="M96.2,57.4c0-1.6,0-1.9,0-2.2c0-0.4-0.1-0.5-0.4-0.6c-0.1,0-0.2,0-0.4,0c-0.1,0-0.2,0-0.2-0.1
			c0-0.1,0.1-0.1,0.2-0.1c0.4,0,1,0,1.3,0c0.3,0,0.9,0,1.3,0c0.1,0,0.2,0,0.2,0.1c0,0.1-0.1,0.1-0.2,0.1s-0.2,0-0.3,0
			c-0.3,0.1-0.4,0.2-0.4,0.6c0,0.3,0,0.6,0,2.2v1.8c0,1,0,1.8,0,2.3c0,0.3,0.1,0.5,0.4,0.5c0.1,0,0.4,0,0.5,0c0.1,0,0.2,0,0.2,0.1
			c0,0.1-0.1,0.1-0.2,0.1c-0.7,0-1.3,0-1.6,0c-0.2,0-0.9,0-1.3,0c-0.1,0-0.2,0-0.2-0.1c0-0.1,0-0.1,0.2-0.1c0.2,0,0.3,0,0.4,0
			c0.2,0,0.3-0.2,0.3-0.5c0.1-0.4,0.1-1.3,0.1-2.3V57.4z"/>
		<path class="st0" d="M101.2,61.2c-1-0.9-1.3-2.1-1.3-3.1c0-0.7,0.2-1.9,1.2-2.8c0.7-0.7,1.7-1.1,3.3-1.1c0.6,0,1,0,1.5,0.1
			c0.4,0.1,0.7,0.1,1,0.2c0.1,0,0.2,0.1,0.2,0.1c0,0.1,0,0.2-0.1,0.6c0,0.3,0,0.9,0,1.1c0,0.2,0,0.2-0.1,0.2c-0.1,0-0.1-0.1-0.1-0.2
			c0-0.3-0.1-0.7-0.4-1c-0.3-0.4-1.2-0.6-2.1-0.6c-0.9,0-1.5,0.2-1.9,0.6c-0.8,0.7-1,1.7-1,2.7c0,2.5,1.9,3.7,3.3,3.7
			c0.9,0,1.5-0.1,1.9-0.6c0.2-0.2,0.3-0.5,0.4-0.7c0-0.2,0.1-0.2,0.1-0.2c0.1,0,0.1,0.1,0.1,0.2c0,0.1-0.1,1-0.2,1.4
			c-0.1,0.2-0.1,0.2-0.3,0.3c-0.4,0.2-1.2,0.2-1.9,0.2C103.3,62.3,102.1,62,101.2,61.2z"/>
		<path class="st0" d="M110.2,59.5C110.2,59.5,110.2,59.5,110.2,59.5l-0.7,1.6c-0.1,0.3-0.2,0.5-0.2,0.6c0,0.2,0.1,0.3,0.4,0.3h0.2
			c0.1,0,0.2,0,0.2,0.1c0,0.1-0.1,0.1-0.2,0.1c-0.3,0-0.8,0-1.1,0c-0.1,0-0.7,0-1.2,0c-0.1,0-0.2,0-0.2-0.1c0-0.1,0-0.1,0.1-0.1
			c0.1,0,0.2,0,0.3,0c0.5-0.1,0.7-0.4,0.9-0.9l2.6-6.5c0.1-0.3,0.2-0.4,0.3-0.4c0.1,0,0.2,0.1,0.3,0.3c0.2,0.6,1.9,4.8,2.6,6.4
			c0.4,0.9,0.7,1.1,0.9,1.1c0.2,0,0.3,0,0.4,0c0.1,0,0.1,0,0.1,0.1c0,0.1-0.1,0.1-0.5,0.1c-0.4,0-1.1,0-2,0c-0.2,0-0.3,0-0.3-0.1
			c0-0.1,0-0.1,0.1-0.1c0.1,0,0.1-0.1,0.1-0.2l-0.8-2.2c0-0.1-0.1-0.1-0.1-0.1H110.2z M112.4,59C112.4,59,112.4,58.9,112.4,59
			l-0.9-2.6c0,0,0-0.1-0.1-0.1c0,0-0.1,0.1-0.1,0.1l-1,2.5c0,0,0,0.1,0,0.1H112.4z"/>
		<path class="st0" d="M118.6,59.2c0,1.3,0,2,0.2,2.2c0.2,0.2,0.4,0.2,1.3,0.2c0.5,0,1,0,1.2-0.3c0.1-0.1,0.2-0.4,0.3-0.6
			c0-0.1,0-0.2,0.1-0.2c0.1,0,0.1,0.1,0.1,0.2c0,0.1-0.1,0.9-0.2,1.2c-0.1,0.2-0.1,0.3-0.7,0.3c-0.7,0-1.3,0-1.8,0
			c-0.5,0-0.8,0-1.3,0c-0.1,0-0.3,0-0.6,0c-0.2,0-0.5,0-0.7,0c-0.1,0-0.2,0-0.2-0.1c0-0.1,0-0.1,0.2-0.1c0.2,0,0.3,0,0.4,0
			c0.2,0,0.3-0.3,0.3-0.6c0.1-0.4,0.1-1.3,0.1-2.2v-1.8c0-1.6,0-1.9,0-2.2c0-0.4-0.1-0.5-0.4-0.6c-0.1,0-0.2,0-0.3,0
			c-0.1,0-0.2,0-0.2-0.1c0-0.1,0.1-0.1,0.2-0.1c0.5,0,1.1,0,1.4,0c0.2,0,1,0,1.4,0c0.1,0,0.2,0,0.2,0.1c0,0.1-0.1,0.1-0.2,0.1
			c-0.1,0-0.3,0-0.4,0c-0.3,0.1-0.4,0.2-0.4,0.6c0,0.3,0,0.6,0,2.2V59.2z"/>
		<path class="st0" d="M127.1,57.4c0-1.6,0-1.9,0-2.2c0-0.4-0.1-0.5-0.4-0.6c-0.1,0-0.3,0-0.4,0c-0.1,0-0.2,0-0.2-0.1
			c0-0.1,0.1-0.1,0.2-0.1c0.5,0,1.2,0,1.4,0c0.4,0,1.1,0,1.5,0c0.7,0,1.3,0.1,1.9,0.4c0.3,0.2,0.7,0.7,0.7,1.4
			c0,0.8-0.3,1.5-1.4,2.3c0.9,1.2,1.6,2.1,2.2,2.7c0.6,0.6,1,0.7,1.2,0.7c0.1,0,0.2,0,0.3,0c0.1,0,0.1,0,0.1,0.1
			c0,0.1-0.1,0.1-0.2,0.1h-1c-0.6,0-0.8-0.1-1.1-0.2c-0.4-0.2-0.8-0.7-1.4-1.5c-0.4-0.6-0.9-1.3-1-1.4c-0.1-0.1-0.1-0.1-0.2-0.1
			l-0.9,0c-0.1,0-0.1,0-0.1,0.1v0.1c0,1,0,1.8,0.1,2.2c0,0.3,0.1,0.5,0.4,0.6c0.2,0,0.4,0,0.5,0c0.1,0,0.1,0,0.1,0.1
			c0,0.1-0.1,0.1-0.2,0.1c-0.6,0-1.4,0-1.5,0c-0.2,0-0.8,0-1.3,0c-0.1,0-0.2,0-0.2-0.1c0-0.1,0-0.1,0.2-0.1c0.2,0,0.3,0,0.4,0
			c0.2,0,0.3-0.3,0.3-0.6c0.1-0.4,0.1-1.3,0.1-2.2V57.4z M128.3,58.2c0,0.1,0,0.2,0.1,0.2c0.2,0.1,0.5,0.1,0.8,0.1
			c0.4,0,0.5,0,0.7-0.2c0.3-0.2,0.6-0.7,0.6-1.6c0-1.5-1-1.9-1.6-1.9c-0.3,0-0.4,0-0.5,0c-0.1,0-0.1,0.1-0.1,0.1V58.2z"/>
		<path class="st0" d="M135.1,57.4c0-1.6,0-1.9,0-2.2c0-0.4-0.1-0.5-0.4-0.6c-0.1,0-0.3,0-0.4,0c-0.1,0-0.2,0-0.2-0.1
			c0-0.1,0.1-0.1,0.2-0.1c0.3,0,0.6,0,0.8,0c0.3,0,0.5,0,0.7,0c0.3,0,2.4,0,2.6,0c0.2,0,0.4,0,0.4-0.1c0.1,0,0.1,0,0.2,0
			c0.1,0,0.1,0,0.1,0.1c0,0.1-0.1,0.2-0.1,0.7c0,0.1,0,0.6-0.1,0.7c0,0.1,0,0.1-0.1,0.1c-0.1,0-0.1-0.1-0.1-0.1c0-0.1,0-0.2-0.1-0.4
			c-0.1-0.2-0.2-0.3-0.7-0.4c-0.2,0-1.3,0-1.5,0c-0.1,0-0.1,0-0.1,0.1v2.6c0,0.1,0,0.1,0.1,0.1c0.2,0,1.4,0,1.7,0
			c0.2,0,0.4-0.1,0.5-0.2c0.1-0.1,0.1-0.1,0.2-0.1c0,0,0.1,0,0.1,0.1c0,0.1,0,0.2-0.1,0.8c0,0.2,0,0.6,0,0.7c0,0.1,0,0.2-0.1,0.2
			c-0.1,0-0.1,0-0.1-0.1c0-0.1,0-0.2,0-0.4c-0.1-0.2-0.2-0.4-0.6-0.4c-0.2,0-1.2,0-1.5,0c-0.1,0-0.1,0-0.1,0.1v0.8
			c0,0.4,0,1.3,0,1.6c0,0.7,0.2,0.9,1.2,0.9c0.3,0,0.7,0,1-0.1c0.3-0.1,0.4-0.3,0.5-0.8c0-0.1,0-0.2,0.1-0.2c0.1,0,0.1,0.1,0.1,0.2
			c0,0.2-0.1,0.9-0.1,1.2c-0.1,0.3-0.2,0.3-0.6,0.3c-0.8,0-1.3,0-1.8,0c-0.4,0-0.8,0-1.1,0c-0.1,0-0.3,0-0.6,0c-0.2,0-0.5,0-0.7,0
			c-0.1,0-0.2,0-0.2-0.1c0-0.1,0-0.1,0.2-0.1c0.2,0,0.3,0,0.4,0c0.2,0,0.3-0.3,0.3-0.6c0.1-0.4,0.1-1.3,0.1-2.2V57.4z"/>
		<path class="st0" d="M141.3,62.1c-0.2-0.1-0.2-0.1-0.2-0.4c0-0.6,0-1.2,0.1-1.4c0-0.2,0-0.3,0.1-0.3c0.1,0,0.1,0.1,0.1,0.2
			c0,0.1,0,0.4,0.1,0.5c0.2,0.8,0.8,1,1.5,1c0.9,0,1.4-0.6,1.4-1.2c0-0.5-0.2-1-1-1.7l-0.5-0.4c-1.1-0.9-1.5-1.6-1.5-2.5
			c0-1.1,1-2,2.4-2c0.7,0,1.1,0.1,1.4,0.2c0.1,0,0.1,0.1,0.1,0.1c0,0.1,0,0.4,0,1.2c0,0.2,0,0.3-0.1,0.3c-0.1,0-0.1-0.1-0.1-0.2
			c0-0.1-0.1-0.4-0.3-0.7c-0.2-0.2-0.5-0.5-1.1-0.5c-0.8,0-1.2,0.4-1.2,1.1c0,0.5,0.2,0.8,1.1,1.5l0.3,0.2c1.3,0.9,1.7,1.7,1.7,2.6
			c0,0.6-0.2,1.3-1,1.8c-0.5,0.3-1.1,0.4-1.6,0.4C142.2,62.3,141.8,62.3,141.3,62.1z"/>
		<path class="st0" d="M147.9,57.4c0-1.6,0-1.9,0-2.2c0-0.4-0.1-0.5-0.4-0.6c-0.1,0-0.3,0-0.4,0c-0.1,0-0.2,0-0.2-0.1
			c0-0.1,0.1-0.1,0.2-0.1c0.3,0,0.6,0,0.8,0c0.3,0,0.5,0,0.7,0c0.3,0,2.4,0,2.6,0c0.2,0,0.4,0,0.4-0.1c0.1,0,0.1,0,0.2,0
			c0.1,0,0.1,0,0.1,0.1c0,0.1-0.1,0.2-0.1,0.7c0,0.1,0,0.6-0.1,0.7c0,0.1,0,0.1-0.1,0.1c-0.1,0-0.1-0.1-0.1-0.1c0-0.1,0-0.2-0.1-0.4
			c-0.1-0.2-0.2-0.3-0.7-0.4c-0.2,0-1.3,0-1.5,0c-0.1,0-0.1,0-0.1,0.1v2.6c0,0.1,0,0.1,0.1,0.1c0.2,0,1.4,0,1.7,0
			c0.2,0,0.4-0.1,0.5-0.2c0.1-0.1,0.1-0.1,0.2-0.1c0,0,0.1,0,0.1,0.1c0,0.1,0,0.2-0.1,0.8c0,0.2,0,0.6,0,0.7c0,0.1,0,0.2-0.1,0.2
			c-0.1,0-0.1,0-0.1-0.1c0-0.1,0-0.2,0-0.4c-0.1-0.2-0.2-0.4-0.6-0.4c-0.2,0-1.2,0-1.5,0c-0.1,0-0.1,0-0.1,0.1v0.8
			c0,0.4,0,1.3,0,1.6c0,0.7,0.2,0.9,1.2,0.9c0.3,0,0.7,0,1-0.1c0.3-0.1,0.4-0.3,0.5-0.8c0-0.1,0-0.2,0.1-0.2c0.1,0,0.1,0.1,0.1,0.2
			c0,0.2-0.1,0.9-0.1,1.2c-0.1,0.3-0.2,0.3-0.6,0.3c-0.8,0-1.3,0-1.8,0c-0.4,0-0.8,0-1.1,0c-0.1,0-0.3,0-0.6,0c-0.2,0-0.5,0-0.7,0
			c-0.1,0-0.2,0-0.2-0.1c0-0.1,0-0.1,0.2-0.1c0.2,0,0.3,0,0.4,0c0.2,0,0.3-0.3,0.3-0.6c0.1-0.4,0.1-1.3,0.1-2.2V57.4z"/>
		<path class="st0" d="M155.8,59.5C155.8,59.5,155.7,59.5,155.8,59.5l-0.7,1.6c-0.1,0.3-0.2,0.5-0.2,0.6c0,0.2,0.1,0.3,0.4,0.3h0.2
			c0.1,0,0.2,0,0.2,0.1c0,0.1-0.1,0.1-0.2,0.1c-0.3,0-0.8,0-1.1,0c-0.1,0-0.7,0-1.2,0c-0.1,0-0.2,0-0.2-0.1c0-0.1,0-0.1,0.1-0.1
			c0.1,0,0.2,0,0.3,0c0.5-0.1,0.7-0.4,0.9-0.9l2.6-6.5c0.1-0.3,0.2-0.4,0.3-0.4c0.1,0,0.2,0.1,0.3,0.3c0.2,0.6,1.9,4.8,2.6,6.4
			c0.4,0.9,0.7,1.1,0.9,1.1c0.2,0,0.3,0,0.4,0c0.1,0,0.1,0,0.1,0.1c0,0.1-0.1,0.1-0.5,0.1c-0.4,0-1.1,0-2,0c-0.2,0-0.3,0-0.3-0.1
			c0-0.1,0-0.1,0.1-0.1c0.1,0,0.1-0.1,0.1-0.2l-0.8-2.2c0-0.1-0.1-0.1-0.1-0.1H155.8z M157.9,59C158,59,158,58.9,157.9,59l-0.9-2.6
			c0,0,0-0.1-0.1-0.1c0,0-0.1,0.1-0.1,0.1l-1,2.5c0,0,0,0.1,0,0.1H157.9z"/>
		<path class="st0" d="M162.9,57.4c0-1.6,0-1.9,0-2.2c0-0.4-0.1-0.5-0.4-0.6c-0.1,0-0.3,0-0.4,0c-0.1,0-0.2,0-0.2-0.1
			c0-0.1,0.1-0.1,0.2-0.1c0.5,0,1.2,0,1.4,0c0.4,0,1.1,0,1.5,0c0.7,0,1.3,0.1,1.9,0.4c0.3,0.2,0.7,0.7,0.7,1.4
			c0,0.8-0.3,1.5-1.4,2.3c0.9,1.2,1.6,2.1,2.2,2.7c0.6,0.6,1,0.7,1.2,0.7c0.1,0,0.2,0,0.3,0c0.1,0,0.1,0,0.1,0.1
			c0,0.1-0.1,0.1-0.2,0.1h-1c-0.6,0-0.8-0.1-1.1-0.2c-0.4-0.2-0.8-0.7-1.4-1.5c-0.4-0.6-0.9-1.3-1-1.4c-0.1-0.1-0.1-0.1-0.2-0.1
			l-0.9,0c-0.1,0-0.1,0-0.1,0.1v0.1c0,1,0,1.8,0.1,2.2c0,0.3,0.1,0.5,0.4,0.6c0.2,0,0.4,0,0.5,0c0.1,0,0.1,0,0.1,0.1
			c0,0.1-0.1,0.1-0.2,0.1c-0.6,0-1.4,0-1.5,0c-0.2,0-0.8,0-1.3,0c-0.1,0-0.2,0-0.2-0.1c0-0.1,0-0.1,0.2-0.1c0.2,0,0.3,0,0.4,0
			c0.2,0,0.3-0.3,0.3-0.6c0.1-0.4,0.1-1.3,0.1-2.2V57.4z M164.1,58.2c0,0.1,0,0.2,0.1,0.2c0.2,0.1,0.5,0.1,0.8,0.1
			c0.4,0,0.5,0,0.7-0.2c0.3-0.2,0.6-0.7,0.6-1.6c0-1.5-1-1.9-1.6-1.9c-0.3,0-0.4,0-0.5,0c-0.1,0-0.1,0.1-0.1,0.1V58.2z"/>
		<path class="st0" d="M171,61.2c-1-0.9-1.3-2.1-1.3-3.1c0-0.7,0.2-1.9,1.2-2.8c0.7-0.7,1.7-1.1,3.3-1.1c0.6,0,1,0,1.5,0.1
			c0.4,0.1,0.7,0.1,1,0.2c0.1,0,0.2,0.1,0.2,0.1c0,0.1,0,0.2-0.1,0.6c0,0.3,0,0.9,0,1.1c0,0.2,0,0.2-0.1,0.2c-0.1,0-0.1-0.1-0.1-0.2
			c0-0.3-0.1-0.7-0.4-1c-0.3-0.4-1.2-0.6-2.1-0.6c-0.9,0-1.5,0.2-1.9,0.6c-0.8,0.7-1,1.7-1,2.7c0,2.5,1.9,3.7,3.3,3.7
			c0.9,0,1.5-0.1,1.9-0.6c0.2-0.2,0.3-0.5,0.4-0.7c0-0.2,0.1-0.2,0.1-0.2c0.1,0,0.1,0.1,0.1,0.2c0,0.1-0.1,1-0.2,1.4
			c-0.1,0.2-0.1,0.2-0.3,0.3c-0.4,0.2-1.2,0.2-1.9,0.2C173.1,62.3,171.9,62,171,61.2z"/>
		<path class="st0" d="M184.7,57.6C184.7,57.6,184.7,57.6,184.7,57.6l0.1-0.3c0-1.6,0-1.9,0-2.2c0-0.4-0.1-0.5-0.4-0.6
			c-0.1,0-0.3,0-0.4,0c-0.1,0-0.2,0-0.2-0.1c0-0.1,0.1-0.1,0.2-0.1c0.6,0,1.2,0,1.5,0c0.2,0,0.9,0,1.3,0c0.1,0,0.2,0,0.2,0.1
			c0,0.1-0.1,0.1-0.2,0.1c-0.1,0-0.2,0-0.3,0c-0.3,0.1-0.4,0.2-0.4,0.6c0,0.3,0,0.6,0,2.2v1.8c0,1,0,1.8,0.1,2.2
			c0,0.3,0.1,0.5,0.4,0.6c0.1,0,0.4,0,0.5,0c0.1,0,0.2,0,0.2,0.1c0,0.1-0.1,0.1-0.2,0.1c-0.7,0-1.3,0-1.6,0c-0.2,0-0.9,0-1.3,0
			c-0.1,0-0.2,0-0.2-0.1c0-0.1,0-0.1,0.2-0.1c0.2,0,0.3,0,0.4,0c0.2,0,0.3-0.3,0.3-0.6c0.1-0.4,0.1-1.3,0.1-2.2v-0.9
			c0,0,0-0.1-0.1-0.1h-4c0,0-0.1,0-0.1,0.1v0.9c0,1,0,1.8,0.1,2.2c0,0.3,0.1,0.5,0.4,0.6c0.1,0,0.4,0,0.5,0c0.1,0,0.2,0,0.2,0.1
			c0,0.1-0.1,0.1-0.2,0.1c-0.7,0-1.3,0-1.6,0c-0.2,0-0.9,0-1.3,0c-0.1,0-0.2,0-0.2-0.1c0-0.1,0-0.1,0.2-0.1c0.2,0,0.3,0,0.4,0
			c0.2,0,0.3-0.3,0.3-0.6c0.1-0.4,0.1-1.3,0.1-2.2v-1.8c0-1.6,0-1.9,0-2.2c0-0.4-0.1-0.5-0.4-0.6c-0.1,0-0.3,0-0.4,0
			c-0.1,0-0.2,0-0.2-0.1c0-0.1,0.1-0.1,0.2-0.1c0.6,0,1.2,0,1.5,0c0.2,0,0.9,0,1.3,0c0.1,0,0.2,0,0.2,0.1c0,0.1-0.1,0.1-0.2,0.1
			c-0.1,0-0.2,0-0.3,0c-0.3,0.1-0.4,0.2-0.4,0.6c0,0.3,0,0.6,0,2.2v0.2c0,0.1,0,0.1,0.1,0.1H184.7z"/>
	</g>
	<g>
		<path class="st0" d="M47.9,28.2c0,1.7,0.3,2.3,0.8,2.5c0.4,0.1,0.8,0.2,1.2,0.2c0.2,0,0.4,0,0.4,0.2c0,0.2-0.2,0.2-0.5,0.2
			c-1.5,0-2.3-0.1-2.8-0.1c-0.2,0-1.3,0.1-2.4,0.1c-0.3,0-0.5,0-0.5-0.2c0-0.1,0.1-0.2,0.4-0.2c0.3,0,0.7,0,1-0.1
			c0.6-0.2,0.7-0.8,0.7-2.8l0.2-13.2c0-0.4,0.1-0.8,0.3-0.8c0.2,0,0.4,0.3,0.8,0.7c0.3,0.3,3.7,3.9,6.9,7.2c1.5,1.5,4.5,4.7,4.9,5.1
			h0.1l-0.2-10c0-1.4-0.2-1.8-0.8-2c-0.3-0.1-0.9-0.1-1.2-0.1c-0.3,0-0.4-0.1-0.4-0.2c0-0.2,0.2-0.2,0.6-0.2c1.2,0,2.2,0.1,2.7,0.1
			c0.2,0,1.1-0.1,2.2-0.1c0.3,0,0.5,0,0.5,0.2c0,0.1-0.1,0.2-0.4,0.2c-0.2,0-0.4,0-0.7,0.1C61.2,15,61,15.5,61,16.7l-0.2,14.1
			c0,0.5-0.1,0.7-0.3,0.7c-0.2,0-0.5-0.2-0.8-0.5c-1.4-1.3-4.3-4.3-6.6-6.6c-2.4-2.4-4.9-5.2-5.3-5.6h-0.1L47.9,28.2z"/>
		<path class="st0" d="M67.1,22.8c0-3.8,2.5-8.8,9.2-8.8c5.6,0,9,3.2,9,8.4c0,5.1-3.6,9.2-9.3,9.2C69.7,31.6,67.1,26.8,67.1,22.8z
			 M82.3,23.2c0-5-2.9-8.1-6.6-8.1c-2.6,0-5.5,1.4-5.5,7c0,4.7,2.6,8.3,6.9,8.3C78.6,30.5,82.3,29.7,82.3,23.2z"/>
		<path class="st0" d="M90.1,16.5c-0.5-1.2-0.9-1.5-1.7-1.7c-0.3-0.1-0.7-0.1-0.9-0.1c-0.2,0-0.3-0.1-0.3-0.2c0-0.2,0.2-0.2,0.6-0.2
			c1.2,0,2.5,0.1,3.2,0.1c0.6,0,1.6-0.1,2.7-0.1c0.3,0,0.5,0,0.5,0.2c0,0.2-0.1,0.2-0.3,0.2c-0.4,0-0.7,0-0.9,0.2
			c-0.2,0.1-0.2,0.3-0.2,0.5c0,0.3,0.2,0.9,0.5,1.7l3.8,10.2h0.1c1-2.5,3.9-9.7,4.4-11.1c0.1-0.3,0.2-0.6,0.2-0.8
			c0-0.2-0.1-0.4-0.3-0.4c-0.3-0.1-0.6-0.1-0.9-0.1c-0.2,0-0.4,0-0.4-0.2c0-0.2,0.2-0.2,0.6-0.2c1.1,0,2.1,0.1,2.3,0.1
			c0.4,0,1.4-0.1,2.1-0.1c0.3,0,0.5,0,0.5,0.2c0,0.2-0.1,0.2-0.4,0.2c-0.2,0-0.7,0-1.1,0.3c-0.3,0.2-0.6,0.6-1.2,2
			c-0.9,2.1-1.5,3.3-2.7,6.1c-1.4,3.3-2.5,5.7-3,6.8c-0.6,1.3-0.7,1.7-1,1.7c-0.3,0-0.4-0.3-0.8-1.4L90.1,16.5z"/>
		<path class="st0" d="M110.8,25.4c-0.1,0-0.2,0-0.2,0.2l-1.2,3.2c-0.2,0.6-0.3,1.1-0.3,1.4c0,0.4,0.2,0.7,0.9,0.7h0.3
			c0.3,0,0.3,0,0.3,0.2c0,0.2-0.1,0.2-0.4,0.2c-0.7,0-1.7-0.1-2.4-0.1c-0.2,0-1.5,0.1-2.6,0.1c-0.3,0-0.4,0-0.4-0.2
			c0-0.1,0.1-0.2,0.3-0.2c0.2,0,0.5,0,0.7,0c1-0.1,1.5-0.9,1.9-2l5.6-14c0.3-0.6,0.4-0.9,0.6-0.9c0.2,0,0.3,0.2,0.6,0.7
			c0.5,1.2,4.1,10.4,5.5,13.8c0.9,2,1.5,2.3,2,2.4c0.3,0.1,0.7,0.1,0.9,0.1c0.2,0,0.3,0,0.3,0.2c0,0.2-0.2,0.2-1,0.2
			c-0.8,0-2.4,0-4.2,0c-0.4,0-0.7,0-0.7-0.2c0-0.1,0.1-0.2,0.3-0.2c0.2,0,0.3-0.2,0.2-0.5l-1.8-4.7c0-0.1-0.1-0.2-0.2-0.2H110.8z
			 M115.4,24.3c0.1,0,0.1-0.1,0.1-0.1l-2-5.5c0-0.1,0-0.2-0.1-0.2c-0.1,0-0.1,0.1-0.1,0.2l-2.1,5.5c0,0.1,0,0.2,0.1,0.2H115.4z"/>
		<path class="st0" d="M128.5,20.8c0-3.4,0-4,0-4.7c0-0.8-0.2-1.1-1-1.3c-0.2,0-0.6-0.1-0.9-0.1c-0.2,0-0.4,0-0.4-0.2
			c0-0.2,0.2-0.2,0.5-0.2c1.2,0,2.6,0.1,3.1,0.1c0.8,0,2.5-0.1,3.2-0.1c1.4,0,2.9,0.1,4.1,1c0.6,0.4,1.5,1.6,1.5,3.1
			c0,1.7-0.7,3.2-3,5c2,2.5,3.5,4.5,4.9,5.9c1.3,1.3,2.2,1.5,2.5,1.5c0.2,0,0.4,0.1,0.6,0.1c0.2,0,0.3,0.1,0.3,0.2
			c0,0.2-0.2,0.2-0.4,0.2h-2.1c-1.3,0-1.8-0.1-2.4-0.4c-1-0.5-1.8-1.6-3.1-3.3c-0.9-1.2-1.9-2.7-2.2-3.1c-0.1-0.1-0.2-0.2-0.4-0.2
			l-1.9,0c-0.1,0-0.2,0-0.2,0.2v0.3c0,2.1,0,3.8,0.1,4.8c0.1,0.6,0.2,1.1,0.9,1.2c0.3,0,0.8,0.1,1.1,0.1c0.2,0,0.3,0.1,0.3,0.2
			c0,0.2-0.2,0.2-0.4,0.2c-1.3,0-3-0.1-3.3-0.1c-0.4,0-1.8,0.1-2.7,0.1c-0.3,0-0.4-0.1-0.4-0.2c0-0.1,0.1-0.2,0.4-0.2
			c0.3,0,0.6,0,0.8-0.1c0.4-0.1,0.6-0.6,0.6-1.2c0.1-0.9,0.1-2.7,0.1-4.8V20.8z M131.1,22.6c0,0.2,0,0.3,0.2,0.4
			c0.5,0.2,1.1,0.2,1.7,0.2c0.9,0,1.2-0.1,1.6-0.4c0.7-0.5,1.3-1.5,1.3-3.4c0-3.2-2.1-4.1-3.4-4.1c-0.6,0-1,0-1.2,0.1
			c-0.2,0-0.2,0.1-0.2,0.3V22.6z"/>
		<path class="st0" d="M151,15.6l-3.3,0.1c-1.3,0-1.8,0.2-2.2,0.6c-0.2,0.3-0.3,0.6-0.4,0.8c0,0.2-0.1,0.3-0.2,0.3
			c-0.2,0-0.2-0.1-0.2-0.4c0-0.4,0.4-2.4,0.5-2.6c0.1-0.3,0.1-0.4,0.3-0.4c0.2,0,0.4,0.2,1,0.3c0.7,0.1,1.5,0.1,2.2,0.1h8.8
			c1.4,0,2-0.2,2.2-0.2c0.2,0,0.2,0.1,0.2,0.5c0,0.5-0.1,2-0.1,2.6c0,0.2-0.1,0.4-0.2,0.4c-0.2,0-0.2-0.1-0.2-0.4l0-0.2
			c0-0.6-0.6-1.2-2.6-1.3l-2.8-0.1v9.2c0,2.1,0,3.8,0.1,4.8c0.1,0.6,0.2,1.1,0.9,1.2c0.3,0,0.8,0.1,1.1,0.1c0.2,0,0.4,0.1,0.4,0.2
			c0,0.2-0.2,0.2-0.4,0.2c-1.5,0-2.9-0.1-3.5-0.1c-0.5,0-1.9,0.1-2.8,0.1c-0.3,0-0.4-0.1-0.4-0.2c0-0.1,0.1-0.2,0.4-0.2
			c0.3,0,0.6,0,0.8-0.1c0.4-0.1,0.6-0.6,0.7-1.2c0.1-0.9,0.1-2.7,0.1-4.8V15.6z"/>
		<path class="st0" d="M167.2,20.8c0-3.4,0-4,0-4.7c0-0.8-0.3-1.1-0.8-1.3c-0.2-0.1-0.5-0.1-0.8-0.1c-0.2,0-0.4,0-0.4-0.2
			c0-0.1,0.2-0.2,0.5-0.2c0.8,0,2.3,0.1,2.9,0.1c0.6,0,1.9-0.1,2.7-0.1c0.3,0,0.5,0,0.5,0.2c0,0.2-0.1,0.2-0.4,0.2
			c-0.2,0-0.4,0-0.7,0.1c-0.6,0.1-0.8,0.5-0.8,1.3c0,0.7,0,1.3,0,4.7v3.9c0,2.2,0,3.9,0.1,4.9c0.1,0.6,0.2,1,0.9,1.1
			c0.3,0,0.8,0.1,1.1,0.1c0.2,0,0.4,0.1,0.4,0.2c0,0.2-0.2,0.2-0.4,0.2c-1.5,0-2.9-0.1-3.5-0.1c-0.5,0-1.9,0.1-2.8,0.1
			c-0.3,0-0.4-0.1-0.4-0.2c0-0.1,0.1-0.2,0.4-0.2c0.3,0,0.6,0,0.8-0.1c0.4-0.1,0.6-0.5,0.6-1.1c0.1-0.9,0.1-2.7,0.1-4.9V20.8z"/>
		<path class="st0" d="M178.8,31c-0.4-0.2-0.4-0.3-0.4-0.8c0-1.2,0.1-2.6,0.1-2.9c0-0.3,0.1-0.6,0.3-0.6c0.2,0,0.2,0.2,0.2,0.4
			c0,0.3,0.1,0.8,0.2,1.1c0.5,1.7,1.8,2.3,3.2,2.3c2,0,3-1.4,3-2.5c0-1.1-0.3-2.1-2.2-3.6l-1-0.8c-2.5-1.9-3.3-3.5-3.3-5.3
			c0-2.5,2.1-4.2,5.2-4.2c1.5,0,2.4,0.2,3,0.4c0.2,0,0.3,0.1,0.3,0.3c0,0.3-0.1,0.9-0.1,2.7c0,0.5-0.1,0.7-0.2,0.7
			c-0.2,0-0.2-0.1-0.2-0.4c0-0.2-0.1-0.9-0.6-1.5c-0.3-0.4-1-1.1-2.4-1.1c-1.7,0-2.7,1-2.7,2.3c0,1,0.5,1.8,2.4,3.2l0.6,0.5
			c2.7,2.1,3.7,3.6,3.7,5.7c0,1.3-0.5,2.8-2.1,3.9c-1.1,0.7-2.4,0.9-3.6,0.9C180.8,31.6,179.8,31.4,178.8,31z"/>
		<g>
			<path class="st1" d="M13.6,32.7c-12.4-0.9-16.2-8.1-12-16.1c2.2-4.3,5.7-9,1.6-13.3c-0.1-0.1,0-0.2,0.2-0.2
				c9.3,3.7,4.5,11.2,2.9,14.3C3.1,23.6,5.1,31,13.6,32.6C13.8,32.6,13.8,32.8,13.6,32.7z"/>
			<path class="st0" d="M15.3,25.9L17.4,0l-4.9,0l2.6,25.9C15.1,26.1,15.3,26.1,15.3,25.9z"/>
			<path class="st2" d="M20.9,12.9c3.1,2.4,8.1,15.8-4.1,19.7c-0.2,0-0.2,0.2,0,0.2c19.4-2.4,12.7-16.3,4.3-20
				C20.9,12.6,20.7,12.8,20.9,12.9z"/>
		</g>
	</g>
</g>
</svg>
